<?xml version="1.0" encoding="UTF-8"?>
<svg xmlns="http://www.w3.org/2000/svg" xmlns:xlink="http://www.w3.org/1999/xlink" width="810pt" height="809.999993pt" viewBox="0 0 810 809.999993" version="1.2">
<g id="surface1">
<rect x="0" y="0" width="810" height="809.999993" style="fill:rgb(100%,100%,100%);fill-opacity:1;stroke:none;"/>
<rect x="0" y="0" width="810" height="809.999993" style="fill:rgb(100%,100%,100%);fill-opacity:1;stroke:none;"/>
<rect x="0" y="0" width="810" height="809.999993" style="fill:rgb(100%,100%,100%);fill-opacity:1;stroke:none;"/>
<path style="fill:none;stroke-width:1;stroke-linecap:round;stroke-linejoin:round;stroke:rgb(0%,0%,0%);stroke-opacity:1;stroke-miterlimit:4;" d="M 15.722022 11.581034 C 15.722366 11.618671 15.721677 11.656193 15.720186 11.69383 C 15.718579 11.731467 15.716169 11.768989 15.712727 11.806511 C 15.709399 11.843918 15.705039 11.881325 15.699761 11.918618 C 15.694597 11.955911 15.688401 11.992974 15.681287 12.029922 C 15.674287 12.06687 15.666255 12.103704 15.657419 12.140193 C 15.648469 12.176797 15.638716 12.213172 15.628044 12.249202 C 15.617373 12.285348 15.605783 12.321148 15.593391 12.356605 C 15.580883 12.392177 15.567573 12.427289 15.553459 12.462172 C 15.53923 12.497055 15.524199 12.531479 15.508364 12.565673 C 15.492414 12.599753 15.475776 12.633488 15.458219 12.666765 C 15.440663 12.700041 15.422304 12.732859 15.403141 12.765332 C 15.383979 12.79769 15.364013 12.82959 15.343244 12.860916 C 15.322474 12.892356 15.301017 12.923223 15.278756 12.953631 C 15.256495 12.983924 15.233431 13.013643 15.209793 13.042904 C 15.186041 13.072164 15.1616 13.100736 15.13647 13.128734 C 15.111226 13.156732 15.085408 13.184042 15.059017 13.210778 C 15.03251 13.237514 15.005315 13.263561 14.977547 13.28892 C 14.949778 13.314394 14.921436 13.339064 14.892405 13.363046 C 14.863374 13.387028 14.833769 13.410322 14.803706 13.432812 C 14.773527 13.455302 14.74289 13.477104 14.711564 13.498103 C 14.680353 13.519101 14.648683 13.539411 14.61644 13.558804 C 14.584196 13.57831 14.551608 13.596899 14.518446 13.614685 C 14.485284 13.632586 14.451778 13.649568 14.417699 13.665747 C 14.383734 13.681927 14.349425 13.697303 14.314656 13.711761 C 14.280003 13.726219 14.244891 13.739873 14.209434 13.75261 C 14.174092 13.765347 14.138406 13.777281 14.102376 13.788182 C 14.066345 13.799197 14.0302 13.809295 13.993596 13.818475 C 13.957107 13.827769 13.920502 13.836031 13.883554 13.843375 C 13.84672 13.850833 13.809657 13.857259 13.772365 13.862882 C 13.735187 13.868389 13.69778 13.873094 13.660372 13.876766 C 13.622965 13.880553 13.585443 13.883307 13.547806 13.885142 C 13.510284 13.887093 13.472647 13.888011 13.43501 13.888011 L 11.12505 13.888011 C 11.087069 13.888011 11.049202 13.887208 11.011336 13.885372 C 10.97347 13.883536 10.935603 13.880897 10.897966 13.877225 C 10.860215 13.873553 10.822578 13.868963 10.785056 13.863455 C 10.747534 13.858062 10.710127 13.851636 10.672949 13.844293 C 10.635771 13.836949 10.598823 13.828802 10.561989 13.819622 C 10.525155 13.810557 10.488666 13.800574 10.452291 13.789673 C 10.416031 13.778773 10.380001 13.766954 10.3442 13.754217 C 10.308514 13.741595 10.273057 13.728055 10.23806 13.713711 C 10.202947 13.699253 10.168294 13.683992 10.13387 13.667927 C 10.099561 13.651863 10.065711 13.634995 10.032205 13.61721 C 9.998699 13.599424 9.965652 13.58095 9.933064 13.561557 C 9.900476 13.542165 9.868347 13.522085 9.836677 13.501086 C 9.805121 13.480202 9.774025 13.458515 9.743503 13.436025 C 9.712865 13.413535 9.682916 13.390356 9.653541 13.366489 C 9.624052 13.342621 9.59525 13.317951 9.567023 13.292592 C 9.538795 13.267348 9.511256 13.2413 9.48429 13.214679 C 9.457325 13.187943 9.431048 13.160633 9.40546 13.13275 C 9.379871 13.104752 9.354971 13.07618 9.33076 13.047034 C 9.306548 13.017889 9.283025 12.988055 9.260191 12.957762 C 9.237471 12.927469 9.215439 12.896602 9.194211 12.865276 C 9.172983 12.833836 9.152444 12.801936 9.132822 12.769578 C 9.113086 12.737104 9.094152 12.704287 9.076137 12.67101 C 9.058007 12.637619 9.040681 12.603884 9.024272 12.569804 C 9.007863 12.53561 8.992258 12.501071 8.977455 12.466188 C 8.962768 12.43119 8.948883 12.395963 8.935802 12.360392 C 8.922721 12.324706 8.910558 12.28879 8.899313 12.252645 C 8.888068 12.2165 8.877626 12.18001 8.868217 12.143292 C 8.858693 12.106573 8.850087 12.069739 8.842399 12.032561 C 8.834711 11.995383 8.827941 11.958091 8.821974 11.920683 C 8.816122 11.883276 8.811188 11.845639 8.807172 11.808002 C 8.803155 11.770251 8.799943 11.732499 8.797762 11.694633 C 8.795582 11.656767 8.79432 11.6189 8.793976 11.581034 L 8.793976 9.248009 C 8.794435 9.210258 8.795697 9.172506 8.797992 9.134755 C 8.800172 9.097003 8.803385 9.059366 8.807401 9.021729 C 8.811532 8.984207 8.816581 8.9468 8.822433 8.909393 C 8.8284 8.8721 8.83517 8.834922 8.842972 8.797974 C 8.850661 8.760911 8.859381 8.724192 8.868905 8.687588 C 8.878429 8.651098 8.888871 8.614724 8.900231 8.578693 C 8.911591 8.542663 8.923754 8.506862 8.936835 8.471405 C 8.949916 8.435949 8.9638 8.400836 8.978603 8.366068 C 8.993405 8.3313 9.009125 8.296876 9.025534 8.262911 C 9.042058 8.228831 9.059384 8.195326 9.077514 8.162164 C 9.095644 8.129002 9.114577 8.096299 9.134314 8.064056 C 9.15405 8.031812 9.17459 8.000142 9.195818 7.968816 C 9.217161 7.937605 9.239192 7.906968 9.262026 7.876789 C 9.284746 7.846611 9.308269 7.817121 9.332596 7.78809 C 9.356807 7.75906 9.381707 7.730717 9.40741 7.702949 C 9.432999 7.67518 9.459276 7.6481 9.486241 7.621593 C 9.513206 7.595087 9.54086 7.569269 9.569088 7.544139 C 9.597316 7.51901 9.626117 7.494684 9.655607 7.470931 C 9.684982 7.447179 9.714931 7.424229 9.745568 7.401969 C 9.776091 7.379708 9.807187 7.35825 9.838742 7.337481 C 9.870412 7.316827 9.902426 7.296861 9.935014 7.277698 C 9.967602 7.258536 10.000649 7.240291 10.034155 7.222735 C 10.067661 7.205179 10.101511 7.18854 10.135821 7.172591 C 10.17013 7.156756 10.204783 7.141724 10.239896 7.12761 C 10.274893 7.113381 10.310235 7.100071 10.345921 7.087678 C 10.381607 7.075286 10.417638 7.063696 10.453898 7.053025 C 10.490158 7.042353 10.526647 7.0326 10.563366 7.02365 C 10.600085 7.014814 10.637033 7.006897 10.674096 6.999782 C 10.711274 6.992668 10.748567 6.986587 10.785974 6.981308 C 10.823381 6.97603 10.860903 6.971784 10.89854 6.968342 C 10.936177 6.964899 10.973929 6.96249 11.01168 6.960883 C 11.049432 6.959277 11.087183 6.958703 11.12505 6.959047 L 13.43501 6.959047 C 13.472532 6.958818 13.50994 6.959506 13.547462 6.961113 C 13.584984 6.962719 13.622391 6.965358 13.659684 6.968801 C 13.697091 6.972358 13.734269 6.976718 13.771447 6.982111 C 13.80851 6.98739 13.845458 6.993701 13.882292 7.000815 C 13.919125 7.007929 13.95573 7.016076 13.992219 7.025027 C 14.028594 7.033977 14.064739 7.043845 14.100654 7.054631 C 14.136685 7.065417 14.172256 7.077007 14.207598 7.089629 C 14.24294 7.102136 14.278052 7.115447 14.312706 7.12979 C 14.347359 7.144019 14.381668 7.159165 14.415633 7.175115 C 14.449598 7.191065 14.483104 7.207818 14.516266 7.225489 C 14.549313 7.243045 14.582016 7.261519 14.614259 7.280796 C 14.646388 7.299959 14.678058 7.32004 14.709269 7.340809 C 14.74048 7.361578 14.771233 7.38315 14.801296 7.405526 C 14.831474 7.427787 14.861079 7.450851 14.89011 7.474603 C 14.919026 7.49847 14.947483 7.522911 14.975252 7.548156 C 15.00302 7.573285 15.030215 7.599218 15.056722 7.625724 C 15.083228 7.652231 15.109046 7.679426 15.134176 7.707194 C 15.15942 7.735078 15.183861 7.76342 15.207613 7.792451 C 15.231366 7.821482 15.25443 7.851086 15.276691 7.881265 C 15.298951 7.911443 15.320524 7.94208 15.341293 7.973291 C 15.362062 8.004617 15.382028 8.036287 15.401305 8.068531 C 15.420468 8.100774 15.438942 8.133362 15.456498 8.166524 C 15.474054 8.199686 15.490807 8.233192 15.506757 8.267157 C 15.522707 8.301122 15.537739 8.335431 15.551967 8.370199 C 15.566196 8.404853 15.579621 8.43985 15.592129 8.475307 C 15.604636 8.510649 15.616225 8.54622 15.626897 8.582251 C 15.637683 8.618166 15.647551 8.654311 15.656501 8.690801 C 15.665452 8.727175 15.673484 8.763779 15.680598 8.800613 C 15.687712 8.837447 15.693909 8.874395 15.699187 8.911573 C 15.704465 8.948751 15.70894 8.985928 15.712383 9.023336 C 15.715825 9.060628 15.71835 9.098036 15.719956 9.135558 C 15.721563 9.172965 15.722251 9.210487 15.722022 9.248009 Z M 15.722022 11.581034 " transform="matrix(34.042451,0,0,34.042451,-0.2513,2.901659)"/>
<path style="fill:none;stroke-width:1;stroke-linecap:round;stroke-linejoin:round;stroke:rgb(0%,0%,0%);stroke-opacity:1;stroke-miterlimit:4;" d="M 22.627003 11.974041 C 22.627347 12.143406 22.623561 12.312657 22.615643 12.481908 C 22.607611 12.651044 22.595563 12.819951 22.579269 12.988629 C 22.563089 13.157191 22.542665 13.325295 22.518109 13.492939 C 22.493668 13.660584 22.465096 13.827425 22.432279 13.993693 C 22.399576 14.159845 22.362857 14.325195 22.322007 14.489512 C 22.281157 14.653944 22.236406 14.817228 22.187524 14.979364 C 22.138642 15.141616 22.085859 15.30249 22.029174 15.462103 C 21.972375 15.621715 21.911789 15.779836 21.847301 15.936465 C 21.782699 16.093093 21.714425 16.248001 21.642249 16.401302 C 21.570189 16.554604 21.494341 16.705954 21.414707 16.855469 C 21.335188 17.004983 21.251997 17.152547 21.165248 17.297931 C 21.078385 17.44343 20.98808 17.586633 20.894217 17.727656 C 20.800355 17.86868 20.703164 18.007408 20.602532 18.143612 C 20.501784 18.279816 20.397939 18.413496 20.290651 18.544651 C 20.183478 18.675806 20.073092 18.804208 19.959608 18.92997 C 19.846009 19.055617 19.729541 19.17851 19.609975 19.298535 C 19.490409 19.41856 19.367975 19.535487 19.242672 19.64943 C 19.117369 19.763488 18.989312 19.874333 18.858501 19.981965 C 18.727804 20.089712 18.594469 20.194131 18.458609 20.295223 C 18.32275 20.396314 18.18448 20.494078 18.043801 20.588515 C 17.903122 20.682836 17.760148 20.773601 17.614994 20.861037 C 17.469954 20.94836 17.322734 21.03201 17.173449 21.112103 C 17.024164 21.192196 16.873043 21.268617 16.720086 21.341251 C 16.567014 21.414001 16.412336 21.482848 16.255937 21.54791 C 16.099537 21.612971 15.941646 21.674245 15.782263 21.731504 C 15.622881 21.788877 15.462236 21.842234 15.300214 21.89169 C 15.138192 21.941146 14.975022 21.986585 14.81082 22.027894 C 14.646503 22.069317 14.481383 22.106725 14.315345 22.140001 C 14.149192 22.173392 13.982351 22.202538 13.814936 22.227668 C 13.647406 22.252797 13.479302 22.273796 13.31074 22.290663 C 13.142292 22.307531 12.973385 22.320153 12.804249 22.328759 C 12.634998 22.337365 12.465747 22.341726 12.296381 22.341955 C 12.127016 22.342184 11.95765 22.338283 11.788514 22.330251 C 11.619263 22.322219 11.450356 22.309941 11.281793 22.293647 C 11.113231 22.277238 10.945127 22.256813 10.777483 22.232143 C 10.609953 22.207587 10.442997 22.178786 10.276844 22.145968 C 10.110691 22.113151 9.945342 22.076317 9.781025 22.035353 C 9.616708 21.994503 9.453424 21.949522 9.291172 21.90064 C 9.129035 21.851643 8.968161 21.798745 8.808663 21.741831 C 8.649051 21.685032 8.491045 21.624331 8.334416 21.559729 C 8.177787 21.495012 8.022994 21.426623 7.869693 21.354447 C 7.716507 21.282157 7.565156 21.206309 7.415642 21.126561 C 7.266127 21.046927 7.118678 20.963621 6.973294 20.876758 C 6.82791 20.789895 6.684707 20.699474 6.543798 20.605497 C 6.402775 20.51152 6.264276 20.414215 6.128072 20.313467 C 5.991868 20.21272 5.858303 20.10876 5.727148 20.001472 C 5.596107 19.894184 5.467821 19.783683 5.342173 19.670084 C 5.216526 19.556485 5.093747 19.439903 4.973837 19.320222 C 4.853927 19.200542 4.737001 19.078107 4.623057 18.952689 C 4.509229 18.827272 4.398384 18.699215 4.290867 18.568404 C 4.183234 18.437593 4.07893 18.304143 3.977838 18.168283 C 3.876747 18.032308 3.779097 17.893924 3.684891 17.753245 C 3.590569 17.612451 3.499805 17.469477 3.412597 17.324323 C 3.32539 17.179168 3.24174 17.031834 3.161762 16.882549 C 3.081783 16.733264 3.005477 16.582028 2.932842 16.429071 C 2.860323 16.275999 2.791475 16.121206 2.726528 15.964807 C 2.661582 15.808408 2.600422 15.650402 2.543278 15.491019 C 2.48602 15.331521 2.432777 15.170876 2.383436 15.00874 C 2.334095 14.846718 2.288771 14.683548 2.247462 14.519346 C 2.206153 14.355029 2.168861 14.189794 2.135699 14.023756 C 2.102537 13.857603 2.073392 13.690762 2.048377 13.523232 C 2.023362 13.355702 2.002478 13.187714 1.985725 13.019151 C 1.968972 12.850589 1.95635 12.681682 1.947974 12.512546 C 1.939482 12.343409 1.935122 12.174044 1.935007 12.004678 C 1.934893 11.835312 1.939024 11.665946 1.94717 11.496695 C 1.955432 11.327444 1.96771 11.158538 1.984234 10.989975 C 2.000757 10.821298 2.021297 10.653194 2.046082 10.485664 C 2.070867 10.31802 2.099669 10.151179 2.132601 9.984911 C 2.165648 9.818758 2.202596 9.653523 2.243675 9.489092 C 2.284755 9.324775 2.329735 9.161491 2.378847 8.999354 C 2.427958 8.837217 2.480971 8.676343 2.537885 8.51673 C 2.594914 8.357233 2.65573 8.199227 2.720561 8.042598 C 2.785278 7.886084 2.853782 7.731176 2.926072 7.57799 C 2.998477 7.424803 3.074554 7.273453 3.154303 7.124053 C 3.234052 6.974538 3.317472 6.827204 3.40445 6.68182 C 3.491428 6.536436 3.581963 6.393347 3.67594 6.252439 C 3.770032 6.11153 3.867452 5.973031 3.968314 5.836942 C 4.069176 5.700738 4.173251 5.567173 4.280654 5.436247 C 4.388057 5.305207 4.498558 5.17692 4.612271 5.051388 C 4.725985 4.92574 4.842682 4.803077 4.962363 4.683167 C 5.082043 4.563371 5.204592 4.446559 5.330125 4.332731 C 5.455543 4.218902 5.583715 4.108287 5.71464 4.000769 C 5.845451 3.893252 5.978901 3.788948 6.114876 3.687971 C 6.250965 3.587109 6.389349 3.489459 6.530143 3.395367 C 6.670937 3.30116 6.813911 3.210511 6.95918 3.123418 C 7.104449 3.036326 7.251669 2.95279 7.401069 2.872812 C 7.550354 2.792948 7.70159 2.716757 7.854661 2.644352 C 8.007733 2.571832 8.162526 2.503214 8.31904 2.438382 C 8.47544 2.373435 8.633445 2.312505 8.792828 2.255361 C 8.952326 2.198332 9.113086 2.14509 9.275108 2.095979 C 9.43713 2.046752 9.600299 2.001542 9.764616 1.960348 C 9.928933 1.919154 10.094053 1.882091 10.260206 1.849044 C 10.426244 1.815883 10.593085 1.786966 10.760615 1.762066 C 10.928145 1.737166 11.096134 1.716512 11.264696 1.699874 C 11.433259 1.683236 11.602051 1.670843 11.771187 1.662467 C 11.940438 1.654205 12.109689 1.649959 12.279055 1.649959 C 12.448191 1.649844 12.617212 1.653861 12.786119 1.662008 C 12.955141 1.670155 13.123703 1.682432 13.292036 1.698841 C 13.460369 1.71525 13.628243 1.735789 13.795544 1.76046 C 13.962959 1.78513 14.12957 1.813932 14.295494 1.846749 C 14.461417 1.879567 14.626423 1.916515 14.79051 1.95748 C 14.954597 1.998329 15.117652 2.04331 15.279559 2.092307 C 15.441466 2.141189 15.602111 2.194087 15.76138 2.250886 C 15.920762 2.307686 16.078539 2.368387 16.234823 2.432989 C 16.391223 2.497591 16.545901 2.56598 16.698858 2.638041 C 16.851815 2.710216 17.002936 2.786064 17.152221 2.865698 C 17.301391 2.945217 17.448611 3.028408 17.59388 3.115271 C 17.739034 3.202019 17.882008 3.292325 18.022688 3.386188 C 18.163481 3.48005 18.301751 3.57724 18.437725 3.677873 C 18.5737 3.778391 18.70715 3.882351 18.837961 3.989524 C 18.968887 4.096583 19.097059 4.206969 19.222476 4.320338 C 19.348009 4.433823 19.470558 4.55029 19.590239 4.669741 C 19.710034 4.789192 19.826731 4.911512 19.94056 5.0367 C 20.054273 5.161889 20.164889 5.289831 20.272292 5.420412 C 20.379809 5.551109 20.483999 5.684214 20.584861 5.819959 C 20.685838 5.955705 20.783372 6.093859 20.877464 6.234309 C 20.971671 6.374873 21.062321 6.517618 21.149413 6.662543 C 21.236506 6.807582 21.320041 6.954572 21.40002 7.103628 C 21.479883 7.252684 21.556189 7.40369 21.628709 7.556417 C 21.701229 7.70926 21.769847 7.863823 21.834794 8.019993 C 21.89974 8.176163 21.960785 8.333824 22.018044 8.492978 C 22.075188 8.652246 22.12843 8.812661 22.177771 8.974454 C 22.227112 9.136246 22.272437 9.299186 22.313745 9.463159 C 22.355054 9.627246 22.392347 9.792137 22.425508 9.957946 C 22.458785 10.123869 22.487931 10.290366 22.512945 10.457666 C 22.538075 10.624967 22.558959 10.792726 22.575826 10.961059 C 22.592579 11.129392 22.605316 11.297954 22.613807 11.466861 C 22.622413 11.635768 22.626774 11.804904 22.627003 11.974041 Z M 22.627003 11.974041 " transform="matrix(34.042451,0,0,34.042451,-0.2513,2.901659)"/>
<path style="fill:none;stroke-width:1;stroke-linecap:round;stroke-linejoin:round;stroke:rgb(0%,0%,0%);stroke-opacity:1;stroke-miterlimit:4;" d="M 5.061963 19.399971 C 5.181758 19.514947 5.304192 19.62694 5.429381 19.735949 C 5.554569 19.844958 5.682282 19.950983 5.812404 20.053911 C 5.942642 20.156953 6.075288 20.256668 6.210345 20.353284 C 6.345287 20.449901 6.482638 20.543305 6.622055 20.633381 C 6.761587 20.723342 6.903069 20.81009 7.046732 20.893396 C 7.190394 20.976702 7.336008 21.056451 7.483457 21.132757 C 7.630906 21.209178 7.780076 21.281927 7.931083 21.35112 C 8.082089 21.420312 8.234587 21.485947 8.388691 21.547795 C 8.542796 21.609758 8.698277 21.667934 8.85525 21.722439 C 9.012109 21.776944 9.170229 21.827661 9.329612 21.874708 C 9.48888 21.921639 9.649296 21.964669 9.810744 22.004027 C 9.972077 22.04327 10.134444 22.078727 10.297498 22.110282 C 10.460668 22.141722 10.624411 22.169376 10.788843 22.193129 C 10.953274 22.216881 11.11828 22.236618 11.283629 22.252453 C 11.449094 22.268288 11.614787 22.280221 11.780711 22.288139 C 11.946749 22.296056 12.112787 22.299958 12.279055 22.299958 C 12.444289 22.300646 12.609524 22.297204 12.774759 22.28986 C 12.939879 22.282402 13.10477 22.271042 13.269316 22.255666 C 13.433978 22.24029 13.598065 22.220898 13.761693 22.197604 C 13.925437 22.174196 14.088376 22.146886 14.250743 22.115675 C 14.413109 22.084349 14.574557 22.049237 14.735202 22.010108 C 14.895847 21.97098 15.055345 21.928065 15.213924 21.881248 C 15.372504 21.834432 15.529821 21.783714 15.685876 21.729209 C 15.841932 21.674819 15.99661 21.616528 16.149911 21.554565 C 16.303212 21.492602 16.454792 21.426967 16.604881 21.35766 C 16.754969 21.288353 16.903336 21.215374 17.049867 21.138839 C 17.196399 21.062303 17.340979 20.982324 17.483609 20.898789 C 17.626353 20.815254 17.766803 20.728276 17.905302 20.63797 C 18.043686 20.54755 18.17989 20.453917 18.313799 20.356956 C 18.447708 20.259996 18.579208 20.159822 18.708183 20.056435 C 18.837273 19.953164 18.963723 19.846679 19.087535 19.737211 C 19.211461 19.627743 19.332633 19.515406 19.451051 19.399971 C 19.350074 19.257341 19.245081 19.117695 19.135843 18.981376 C 19.026489 18.844943 18.913349 18.711837 18.796079 18.582288 C 18.678808 18.452624 18.557865 18.326633 18.433136 18.204198 C 18.308292 18.081879 18.180005 17.963346 18.048161 17.848599 C 17.916318 17.733968 17.781146 17.623237 17.642647 17.516638 C 17.504148 17.410038 17.362551 17.307684 17.217971 17.209576 C 17.073276 17.111468 16.925826 17.017835 16.775623 16.928448 C 16.62542 16.839175 16.472578 16.754492 16.317326 16.674399 C 16.161959 16.594191 16.004412 16.518803 15.844571 16.448119 C 15.684729 16.377435 15.522936 16.311571 15.359193 16.250526 C 15.19545 16.189595 15.029986 16.133484 14.8628 16.082422 C 14.695729 16.03136 14.527167 15.985232 14.357227 15.944267 C 14.187403 15.903303 14.01643 15.867387 13.844426 15.836635 C 13.672306 15.805883 13.499498 15.780295 13.326001 15.75987 C 13.15239 15.739445 12.978319 15.724298 12.803905 15.714315 C 12.629375 15.704332 12.454731 15.699513 12.279973 15.699972 C 12.104411 15.699513 11.928963 15.704218 11.753631 15.714201 C 11.578298 15.724184 11.403425 15.73933 11.22901 15.759755 C 11.054595 15.78018 10.880984 15.805654 10.708061 15.836406 C 10.535253 15.867158 10.363363 15.902959 10.19262 15.943923 C 10.021877 15.984888 9.852512 16.030901 9.684523 16.081963 C 9.516419 16.133025 9.350152 16.189136 9.185491 16.250067 C 9.020715 16.310997 8.858004 16.376861 8.697245 16.44743 C 8.536485 16.518114 8.37802 16.593503 8.221735 16.673596 C 8.065451 16.753689 7.911805 16.838372 7.760569 16.927644 C 7.609334 17.016917 7.460852 17.110665 7.315238 17.208773 C 7.169625 17.306881 7.026995 17.40912 6.887464 17.51572 C 6.747932 17.622319 6.611728 17.73305 6.478737 17.847681 C 6.345746 17.962428 6.216427 18.081075 6.090435 18.203395 C 5.964558 18.32583 5.842468 18.451936 5.72405 18.581599 C 5.605746 18.711378 5.491344 18.844484 5.380843 18.980917 C 5.270457 19.117465 5.164087 19.257112 5.061963 19.399971 Z M 5.061963 19.399971 " transform="matrix(34.042451,0,0,34.042451,-0.2513,2.901659)"/>
</g>
</svg>
